<?xml version="1.0" encoding="utf-8"?>
<!-- Generator: Adobe Illustrator 27.0.0, SVG Export Plug-In . SVG Version: 6.00 Build 0)  -->
<svg version="1.1" xmlns="http://www.w3.org/2000/svg" xmlns:xlink="http://www.w3.org/1999/xlink" x="0px" y="0px"
	 viewBox="0 0 595.28 841.89" style="enable-background:new 0 0 595.28 841.89;" xml:space="preserve">
<style type="text/css">
	.st0{fill:#ED1C24;}
	.st1{fill:#334BA0;}
	.st2{fill:#374CA0;}
	.st3{font-family:'Courier';}
	.st4{font-size:48px;}
	.st5{font-family:'Krungthep';}
	.st6{fill:#E41E26;}
	.st7{fill:#24419A;}
</style>
<g id="Layer_2">
	<g>
		<path class="st0" d="M292.15,366.31L286.93,352c11.56-3.39,22.5-8.6,32.82-15.63c10.32-7.03,18.43-14.82,24.34-23.36
			c5.9-8.54,8.86-16.95,8.86-25.24c0-6.15-1.96-10.99-5.88-14.5c-3.92-3.51-9.17-5.27-15.76-5.27c-7.83,0-16.41,2.07-25.74,6.22
			c-9.32,4.14-18.56,9.92-27.69,17.33c-9.14,7.41-17.87,16.33-26.2,26.75c-9.08,11.43-16.66,23.36-22.75,35.79
			c-6.09,12.43-10.69,25.09-13.8,37.96c-3.11,12.87-4.66,26.22-4.66,40.03c0,23.48,5.34,42.1,16.04,55.85
			c10.69,13.75,25.3,20.63,43.83,20.63c11.94,0,23.53-2.7,34.78-8.1c11.25-5.4,24.15-14.44,38.7-27.12l2.98-2.45l2.24,4.14
			c-14.8,14.82-29.65,25.93-44.57,33.34c-14.92,7.41-29.96,11.11-45.13,11.11c-13.68,0-25.83-3.3-36.46-9.89
			c-10.63-6.59-18.84-15.82-24.62-27.69c-5.78-11.87-8.67-25.77-8.67-41.72c0-11.55,1.68-23.61,5.04-36.17
			c3.36-12.56,8.36-25.27,15.01-38.15c6.65-12.87,14.51-25.34,23.59-37.39c9.57-12.81,20.2-24.27,31.89-34.38
			c11.69-10.11,23.4-17.92,35.15-23.45c11.75-5.52,22.29-8.29,31.61-8.29c8.83,0,15.88,2.54,21.17,7.63
			c5.28,5.09,7.93,11.96,7.93,20.63c0,9.67-3.17,19.75-9.51,30.23c-6.34,10.49-14.8,19.84-25.36,28.07
			C315.52,357.11,304.21,362.92,292.15,366.31z"/>
	</g>
</g>
<g id="Layer_1">
	<g>
		<path class="st1" d="M270,528.58c0.69-1.45,1.59-3.3,2.69-5.55c1.1-2.25,2.57-5.31,4.42-9.18c1.85-3.86,4.19-8.77,7.02-14.73
			c2.83-5.95,6.27-13.36,10.32-22.22c-1.39-2.9-2.25-5.07-2.6-6.52c0.11-0.8,0.69-1.21,1.73-1.21h2.95c0.81,0,1.39-0.64,1.73-1.93
			c0.58-1.45,1.59-4.02,3.03-7.73c1.45-3.7,2.95-7.64,4.51-11.83c1.56-4.18,2.92-8.13,4.07-11.83c1.15-3.7,1.73-6.2,1.73-7.49
			c0-1.93-0.35-3.14-1.04-3.62s-1.79-0.72-3.29-0.72c-1.27,0-2.75,0.04-4.42,0.12c-1.68,0.08-3.15,0.28-4.42,0.6
			c-0.69,0-1.04-0.48-1.04-1.45c0-0.96,0.46-1.45,1.39-1.45c1.39,0,3.09-0.04,5.12-0.12c2.02-0.08,4.16-0.24,6.42-0.48
			c2.25-0.24,4.51-0.48,6.76-0.72c2.26-0.24,4.31-0.44,6.16-0.6c1.15,0,1.33,1.05,0.52,3.14c-1.16,2.26-2.4,4.83-3.73,7.73
			c-1.33,2.9-2.57,5.72-3.73,8.45c-1.73,4.19-3.64,8.93-5.72,14.25c-2.08,5.31-3.93,10.14-5.55,14.49
			c-0.35,0.81-0.55,1.45-0.61,1.93c-0.06,0.48,0.26,0.72,0.96,0.72c2.66,0.16,5.12,0.28,7.37,0.36c2.25,0.08,4.3,0.12,6.16,0.12
			c1.04,0,2.8-0.08,5.29-0.24c2.49-0.16,5.14-0.32,7.98-0.48c2.83-0.16,5.58-0.4,8.24-0.72c2.66-0.32,4.74-0.56,6.24-0.72
			c0.58-0.16,1.1-0.48,1.56-0.97c0.46-0.48,0.81-1.04,1.04-1.69c3.47-9.33,6.7-17.87,9.71-25.6s6.07-15.13,9.19-22.22
			c0.58-1.12,1.33-2.01,2.25-2.66c1.15-0.97,2.89-2.17,5.2-3.62c2.31-1.45,4.74-2.86,7.28-4.23c2.54-1.37,4.91-2.54,7.11-3.5
			c2.2-0.97,3.82-1.45,4.86-1.45c0.23,0,0.63,0.08,1.21,0.24c0.58,0.16,0.87,0.48,0.87,0.97c0,0.32-0.23,0.57-0.69,0.72
			c-0.46,0.16-0.81,0.24-1.04,0.24c-0.35,0-1.04,0.12-2.08,0.36c-1.04,0.24-2.2,0.65-3.47,1.21c-1.27,0.57-2.57,1.29-3.9,2.17
			c-1.33,0.89-2.51,1.97-3.55,3.26c-2.77,3.22-5.38,7.09-7.8,11.59c-1.62,3.22-3.29,6.68-5.03,10.38
			c-1.73,3.71-3.41,7.49-5.03,11.35c-1.62,3.86-3.18,7.73-4.68,11.59c-1.5,3.86-2.83,7.49-3.99,10.87
			c-4.16,12.07-7.17,21.82-9.02,29.22c-1.85,7.41-2.78,12.8-2.78,16.18c0,6.28,2.31,9.42,6.94,9.42c1.62,0,3.61-0.56,5.98-1.69
			c2.37-1.12,4.25-2.33,5.63-3.62c0.35,0,0.58,0.2,0.69,0.6c0.11,0.4-0.06,0.93-0.52,1.57c-2.31,1.45-5.26,3.02-8.84,4.71
			c-3.58,1.69-7.98,2.69-13.18,3.02c-1.97-0.16-3.41-1.04-4.33-2.66c-0.93-1.61-1.39-3.7-1.39-6.28c0-2.74,0.35-5.63,1.04-8.69
			c1.15-4.67,2.46-9.38,3.9-14.13c1.44-4.75,2.8-8.97,4.07-12.68c0.46-1.29,0.69-2.66,0.69-4.11c0-2.25-0.87-3.78-2.6-4.59
			c-1.73-0.8-3.41-1.21-5.03-1.21c-2.78,0-5.72,0.08-8.84,0.24c-3.12,0.16-6.21,0.4-9.28,0.72c-3.06,0.33-5.98,0.69-8.76,1.09
			c-2.78,0.4-5.15,0.84-7.11,1.33c-0.7,0.16-1.27,0.57-1.73,1.21c-0.46,0.65-0.93,1.45-1.39,2.42c-2.66,6.44-5.58,13.32-8.76,20.65
			c-3.18,7.33-5.81,14.61-7.89,21.85c-0.23,0.97-0.46,1.61-0.69,1.93c-0.23,0.32-0.81,0.48-1.73,0.48c-1.04,0-1.97,0.04-2.77,0.12
			c-0.81,0.08-1.56,0.28-2.25,0.6c-0.69,0.32-1.45,0.72-2.25,1.21c-0.81,0.48-1.79,1.21-2.95,2.17L270,528.58z"/>
	</g>
	<text transform="matrix(1 0 0 1 56.7019 577.5879)"><tspan x="0" y="0" class="st2 st3 st4">CHARMING</tspan><tspan x="230.44" y="0" class="st2 st5 st4"> </tspan><tspan x="242.16" y="0" class="st6 st3 st4">H</tspan><tspan x="270.96" y="0" class="st2 st3 st4">EADHUNT</tspan></text>
	<g>
		<path class="st7" d="M286.97,365.89l-5.47-14.84c12.11-3.52,23.57-8.92,34.38-16.21c10.81-7.29,19.3-15.36,25.49-24.22
			c6.18-8.85,9.28-17.58,9.28-26.17c0-6.38-2.05-11.39-6.15-15.04c-4.1-3.64-9.6-5.47-16.5-5.47c-8.2,0-17.19,2.15-26.95,6.45
			s-19.43,10.29-29,17.97c-9.57,7.68-18.72,16.93-27.44,27.73c-9.51,11.85-17.45,24.22-23.83,37.11
			c-6.38,12.89-11.2,26.01-14.45,39.36c-3.26,13.35-4.88,27.18-4.88,41.5c0,24.35,5.6,43.65,16.8,57.91
			c11.2,14.26,26.5,21.39,45.9,21.39c12.5,0,24.64-2.8,36.43-8.4c11.78-5.6,25.29-14.97,40.53-28.12l3.12-2.54l2.34,4.3
			c-15.5,15.37-31.05,26.89-46.68,34.57c-15.62,7.68-31.38,11.52-47.27,11.52c-14.33,0-27.05-3.42-38.18-10.25
			s-19.73-16.41-25.78-28.71s-9.08-26.72-9.08-43.26c0-11.98,1.76-24.48,5.27-37.5c3.52-13.02,8.76-26.2,15.72-39.55
			c6.96-13.35,15.2-26.27,24.71-38.77c10.03-13.28,21.16-25.16,33.4-35.64c12.24-10.48,24.51-18.58,36.82-24.32
			c12.3-5.73,23.34-8.59,33.11-8.59c9.24,0,16.63,2.64,22.17,7.91c5.53,5.27,8.3,12.4,8.3,21.39c0,10.03-3.32,20.48-9.96,31.35
			c-6.64,10.87-15.5,20.58-26.56,29.1C311.45,356.36,299.59,362.38,286.97,365.89z"/>
	</g>
</g>
</svg>
