<?xml version="1.0" encoding="utf-8"?>
<!-- Generator: Adobe Illustrator 27.0.0, SVG Export Plug-In . SVG Version: 6.00 Build 0)  -->
<svg version="1.1" xmlns="http://www.w3.org/2000/svg" xmlns:xlink="http://www.w3.org/1999/xlink" x="0px" y="0px"
	 viewBox="0 0 400 400" style="enable-background:new 0 0 400 400;" xml:space="preserve">
<style type="text/css">
	.st0{fill:#ED1C24;}
	.st1{fill:#334BA0;}
	.st2{fill:#374CA0;}
	.st3{fill:#E41E26;}
	.st4{fill:#24419A;}
</style>
<g id="Layer_2">
</g>
<g id="Layer_1">
	<g>
		<g>
			<path class="st0" d="M199.43,157.29l-4.34-11.78c9.62-2.79,18.72-7.08,27.3-12.86c8.58-5.78,15.33-12.19,20.25-19.22
				c4.91-7.03,7.37-13.95,7.37-20.77c0-5.06-1.63-9.04-4.89-11.93c-3.26-2.89-7.63-4.34-13.11-4.34c-6.52,0-13.65,1.7-21.41,5.11
				c-7.76,3.41-15.44,8.16-23.04,14.26c-7.6,6.1-14.87,13.43-21.8,22.01c-7.55,9.4-13.86,19.22-18.93,29.45
				c-5.07,10.23-8.9,20.64-11.48,31.23c-2.59,10.59-3.88,21.57-3.88,32.93c0,19.32,4.45,34.64,13.34,45.95
				c8.89,11.31,21.04,16.97,36.46,16.97c9.93,0,19.57-2.22,28.93-6.66c9.36-4.44,20.09-11.88,32.19-22.32l2.48-2.02l1.86,3.41
				c-12.31,12.19-24.67,21.34-37.08,27.43c-12.41,6.1-24.93,9.14-37.54,9.14c-11.38,0-21.49-2.71-30.33-8.14
				c-8.84-5.42-15.67-13.02-20.48-22.78c-4.81-9.76-7.21-21.21-7.21-34.33c0-9.5,1.4-19.42,4.19-29.76
				c2.79-10.33,6.95-20.79,12.49-31.38c5.53-10.59,12.07-20.85,19.62-30.76c7.96-10.54,16.81-19.97,26.53-28.28
				c9.72-8.32,19.47-14.75,29.24-19.3c9.77-4.55,18.54-6.82,26.3-6.82c7.34,0,13.21,2.09,17.61,6.28c4.39,4.18,6.59,9.84,6.59,16.97
				c0,7.96-2.64,16.25-7.91,24.87c-5.27,8.63-12.31,16.33-21.1,23.09C218.87,149.72,209.46,154.5,199.43,157.29z"/>
		</g>
		<g>
			<path class="st1" d="M181,290.8c0.58-1.19,1.32-2.71,2.24-4.57c0.91-1.85,2.14-4.37,3.68-7.55c1.54-3.18,3.48-7.22,5.84-12.12
				c2.36-4.9,5.22-10.99,8.58-18.28c-1.15-2.38-1.88-4.17-2.16-5.36c0.09-0.66,0.58-0.99,1.44-0.99h2.45c0.67,0,1.15-0.53,1.44-1.59
				c0.48-1.19,1.32-3.31,2.52-6.36c1.2-3.05,2.45-6.29,3.75-9.73c1.3-3.44,2.43-6.69,3.39-9.74c0.96-3.05,1.44-5.1,1.44-6.16
				c0-1.59-0.29-2.58-0.87-2.98s-1.49-0.6-2.74-0.6c-1.06,0-2.28,0.03-3.68,0.1c-1.39,0.07-2.62,0.23-3.68,0.5
				c-0.58,0-0.87-0.4-0.87-1.19c0-0.79,0.38-1.19,1.15-1.19c1.15,0,2.57-0.03,4.26-0.1c1.68-0.07,3.46-0.2,5.34-0.4
				c1.87-0.2,3.75-0.4,5.62-0.6c1.88-0.2,3.58-0.36,5.12-0.5c0.96,0,1.1,0.86,0.43,2.58c-0.96,1.86-2,3.97-3.1,6.36
				c-1.11,2.38-2.14,4.7-3.1,6.95c-1.44,3.45-3.03,7.35-4.76,11.72c-1.73,4.37-3.27,8.34-4.62,11.92c-0.29,0.66-0.46,1.19-0.51,1.59
				c-0.05,0.4,0.22,0.6,0.79,0.6c2.21,0.13,4.26,0.23,6.13,0.3c1.87,0.07,3.58,0.1,5.12,0.1c0.86,0,2.33-0.07,4.4-0.2
				c2.07-0.13,4.28-0.26,6.64-0.4c2.36-0.13,4.64-0.33,6.85-0.6c2.21-0.26,3.94-0.46,5.19-0.6c0.48-0.13,0.91-0.4,1.3-0.79
				c0.38-0.4,0.67-0.86,0.87-1.39c2.88-7.68,5.58-14.7,8.08-21.06s5.05-12.45,7.65-18.28c0.48-0.93,1.1-1.65,1.87-2.19
				c0.96-0.8,2.4-1.79,4.33-2.98c1.92-1.19,3.94-2.35,6.06-3.48c2.12-1.12,4.09-2.09,5.91-2.88c1.83-0.79,3.17-1.19,4.04-1.19
				c0.19,0,0.53,0.07,1.01,0.2c0.48,0.13,0.72,0.4,0.72,0.8c0,0.27-0.19,0.47-0.58,0.6c-0.39,0.13-0.67,0.2-0.87,0.2
				c-0.29,0-0.87,0.1-1.73,0.3c-0.86,0.2-1.83,0.53-2.88,0.99c-1.06,0.47-2.14,1.06-3.25,1.79c-1.11,0.73-2.09,1.62-2.96,2.68
				c-2.31,2.65-4.47,5.83-6.49,9.54c-1.35,2.65-2.74,5.5-4.18,8.54c-1.44,3.05-2.84,6.16-4.18,9.34c-1.35,3.18-2.65,6.36-3.9,9.54
				c-1.25,3.18-2.36,6.16-3.32,8.94c-3.46,9.93-5.96,17.95-7.5,24.04c-1.54,6.09-2.31,10.53-2.31,13.31c0,5.17,1.92,7.75,5.77,7.75
				c1.35,0,3-0.46,4.98-1.39c1.97-0.93,3.53-1.92,4.69-2.98c0.29,0,0.48,0.17,0.58,0.5c0.09,0.33-0.05,0.76-0.43,1.29
				c-1.93,1.19-4.38,2.48-7.36,3.87c-2.98,1.39-6.64,2.22-10.96,2.48c-1.64-0.13-2.84-0.86-3.61-2.19
				c-0.77-1.32-1.15-3.05-1.15-5.17c0-2.25,0.29-4.64,0.86-7.15c0.96-3.84,2.04-7.71,3.25-11.62c1.2-3.91,2.33-7.38,3.39-10.43
				c0.38-1.06,0.58-2.19,0.58-3.38c0-1.85-0.72-3.11-2.16-3.77c-1.44-0.66-2.84-0.99-4.18-0.99c-2.31,0-4.76,0.07-7.36,0.2
				c-2.6,0.13-5.17,0.33-7.72,0.6c-2.55,0.27-4.98,0.56-7.28,0.89c-2.31,0.33-4.28,0.69-5.91,1.09c-0.58,0.13-1.06,0.47-1.44,0.99
				c-0.39,0.53-0.77,1.19-1.15,1.99c-2.21,5.3-4.64,10.96-7.29,16.99c-2.65,6.03-4.83,12.02-6.56,17.98
				c-0.19,0.79-0.39,1.32-0.58,1.59c-0.19,0.27-0.67,0.4-1.44,0.4c-0.87,0-1.64,0.03-2.31,0.1c-0.67,0.07-1.3,0.23-1.88,0.5
				c-0.58,0.27-1.2,0.6-1.88,0.99c-0.67,0.4-1.49,0.99-2.45,1.79L181,290.8z"/>
		</g>
		<g>
			<path class="st2" d="M21.7,308.89c0.13-0.35,0.31-0.59,0.55-0.73c0.23-0.14,0.57-0.21,1.01-0.21c0.48,0,0.82,0.12,1.01,0.35
				c0.2,0.23,0.29,0.71,0.29,1.43c0,1.26,0.01,2.43,0.04,3.52c0.03,1.09,0.04,1.56,0.04,1.42c0,0.6-0.1,1.01-0.31,1.22
				c-0.21,0.21-0.58,0.32-1.11,0.32c-0.86,0-1.42-0.6-1.68-1.81c-0.09-0.36-0.16-0.64-0.21-0.83c-0.25-0.96-0.84-1.75-1.77-2.36
				c-0.94-0.61-2.03-0.92-3.29-0.92c-2.3,0-4.15,0.83-5.54,2.49c-1.39,1.66-2.09,3.89-2.09,6.69c0,2.8,0.71,5.03,2.12,6.69
				s3.27,2.49,5.59,2.49c0.75,0,1.52-0.11,2.3-0.32c0.78-0.21,1.55-0.53,2.3-0.95c0.35-0.18,0.83-0.48,1.44-0.92
				c0.61-0.43,1.05-0.65,1.31-0.65c0.4,0,0.74,0.13,1.02,0.39c0.28,0.26,0.42,0.59,0.42,0.97c0,0.39-0.15,0.76-0.46,1.11
				c-0.31,0.35-0.87,0.79-1.71,1.31c-1.09,0.71-2.19,1.24-3.29,1.57c-1.1,0.34-2.27,0.5-3.49,0.5c-3.21,0-5.86-1.12-7.95-3.36
				c-2.09-2.24-3.14-5.11-3.14-8.61c0-3.46,1.06-6.33,3.18-8.62c2.12-2.29,4.78-3.43,7.99-3.43c0.86,0,1.73,0.1,2.62,0.31
				C19.78,308.17,20.72,308.47,21.7,308.89z"/>
			<path class="st2" d="M34.85,328.4h1.31c0.77,0,1.31,0.1,1.62,0.31c0.31,0.21,0.47,0.55,0.47,1.02c0,0.53-0.14,0.89-0.41,1.09
				s-0.87,0.3-1.79,0.3h-4.27h-0.88c-0.48,0-0.84-0.12-1.08-0.35c-0.24-0.23-0.36-0.58-0.36-1.04c0-0.5,0.14-0.85,0.42-1.04
				c0.28-0.19,0.81-0.29,1.59-0.29h0.35v-17.37h-0.31c-0.78,0-1.32-0.1-1.61-0.31c-0.29-0.21-0.44-0.57-0.44-1.08
				c0-0.47,0.12-0.83,0.36-1.05c0.24-0.23,0.61-0.34,1.12-0.34h0.84h4.08c1.04,0,1.7,0.1,1.98,0.3c0.28,0.2,0.42,0.56,0.42,1.09
				c0,0.51-0.18,0.87-0.53,1.08s-1.01,0.31-1.99,0.31h-0.88v6.71h9.34v-6.71h-1.33c-0.74,0-1.27-0.11-1.59-0.33
				c-0.32-0.22-0.48-0.57-0.48-1.06c0-0.53,0.15-0.89,0.44-1.09c0.29-0.2,1.01-0.3,2.15-0.3h3.88h0.88c0.47,0,0.82,0.12,1.06,0.35
				c0.24,0.23,0.36,0.58,0.36,1.04c0,0.5-0.14,0.86-0.41,1.07s-0.76,0.32-1.46,0.32h-0.47v17.37h0.31c0.78,0,1.31,0.1,1.6,0.3
				c0.29,0.2,0.43,0.54,0.43,1.03c0,0.53-0.14,0.89-0.41,1.09s-0.9,0.3-1.89,0.3h-4.04c-1.05,0-1.72-0.1-2.01-0.3
				c-0.29-0.2-0.43-0.56-0.43-1.09c0-0.5,0.17-0.85,0.51-1.04c0.34-0.19,0.98-0.29,1.93-0.29h0.96v-8.02h-9.34V328.4z"/>
			<path class="st2" d="M60.44,311.03H57.6c-0.79,0-1.35-0.11-1.67-0.32c-0.32-0.21-0.48-0.57-0.48-1.07c0-0.53,0.14-0.89,0.42-1.09
				c0.28-0.2,1.04-0.3,2.29-0.3h5.56c0.71,0,1.2,0.09,1.45,0.28c0.25,0.19,0.48,0.53,0.69,1.03l7.62,18.84h0.33
				c0.7,0,1.18,0.1,1.44,0.29c0.26,0.19,0.39,0.54,0.39,1.04c0,0.53-0.12,0.89-0.37,1.09c-0.25,0.2-0.71,0.3-1.38,0.3h-5.3
				c-0.99,0-1.62-0.1-1.9-0.3c-0.28-0.2-0.42-0.56-0.42-1.09c0-0.49,0.15-0.83,0.46-1.03c0.31-0.2,0.88-0.3,1.73-0.3h1.81
				l-1.89-4.59h-9.9l-1.68,4.59h1.89c0.86,0,1.44,0.1,1.75,0.3c0.31,0.2,0.47,0.54,0.47,1.03c0,0.53-0.14,0.89-0.42,1.09
				c-0.28,0.2-0.89,0.3-1.84,0.3h-5.13c-0.83,0-1.38-0.1-1.66-0.3c-0.27-0.2-0.41-0.56-0.41-1.09c0-0.5,0.14-0.85,0.41-1.04
				c0.27-0.19,0.8-0.29,1.58-0.29h0.37L60.44,311.03z M59.45,321.25h7.97l-4.19-10.22L59.45,321.25z"/>
			<path class="st2" d="M83.08,328.4h1.33c0.75,0,1.29,0.1,1.6,0.31c0.31,0.21,0.47,0.55,0.47,1.02c0,0.51-0.14,0.87-0.41,1.08
				s-0.79,0.31-1.54,0.31h-6.55c-0.44,0-0.78-0.12-1.01-0.36c-0.23-0.24-0.35-0.58-0.35-1.03c0-0.48,0.13-0.82,0.39-1.02
				c0.26-0.2,0.69-0.31,1.29-0.31h0.64h1.13v-17.55h-1.13c-0.97,0-1.61-0.09-1.89-0.27c-0.29-0.18-0.43-0.52-0.43-1.02
				c0-0.44,0.11-0.76,0.34-0.98c0.23-0.22,0.57-0.33,1.02-0.33h8.23c1.99,0,3.47,0.09,4.45,0.28c0.98,0.19,1.81,0.5,2.49,0.95
				c0.87,0.58,1.56,1.34,2.06,2.29c0.5,0.95,0.75,1.97,0.75,3.07c0,1.48-0.46,2.75-1.37,3.81c-0.92,1.06-2.19,1.8-3.83,2.21
				c0.34,0.19,0.64,0.42,0.91,0.67c0.27,0.26,0.52,0.57,0.77,0.93l3.92,5.94h0.64c0.73,0,1.23,0.1,1.5,0.3s0.41,0.54,0.41,1.03
				c0,0.45-0.11,0.79-0.34,1.03c-0.23,0.24-0.56,0.36-1,0.36h-2.2c-0.64,0-1.26-0.46-1.87-1.39c-0.08-0.08-0.14-0.14-0.18-0.19
				l-3.74-5.61c-0.77-1.14-1.4-1.88-1.9-2.22c-0.5-0.33-1.16-0.5-1.98-0.5h-2.59V328.4z M83.08,310.85v7.79h4.04
				c1.82,0,3.19-0.32,4.1-0.97c0.92-0.65,1.37-1.62,1.37-2.9c0-1.3-0.45-2.28-1.35-2.93c-0.9-0.66-2.24-0.98-4.02-0.98H83.08z"/>
			<path class="st2" d="M111.43,321.63l4.19-12.07c0.18-0.46,0.43-0.8,0.75-1c0.32-0.21,0.78-0.31,1.37-0.31h3.2
				c0.42,0,0.73,0.11,0.95,0.34c0.21,0.22,0.32,0.55,0.32,0.97c0,0.49-0.13,0.83-0.4,1.01c-0.27,0.19-0.76,0.28-1.47,0.28h-0.31
				l0.55,17.55h0.45c0.84,0,1.41,0.09,1.7,0.28c0.29,0.19,0.43,0.54,0.43,1.05c0,0.45-0.12,0.79-0.35,1.03
				c-0.23,0.24-0.57,0.36-1.01,0.36h-5.48c-0.75,0-1.27-0.1-1.54-0.31c-0.27-0.21-0.41-0.57-0.41-1.08c0-0.5,0.16-0.85,0.49-1.04
				c0.32-0.19,0.95-0.29,1.87-0.29h0.84l-0.41-16.58l-3.86,11.09c-0.2,0.54-0.44,0.91-0.72,1.12c-0.29,0.21-0.71,0.31-1.29,0.31
				c-0.55,0-0.96-0.11-1.25-0.32c-0.29-0.21-0.52-0.58-0.7-1.11l-3.92-11.09l-0.35,16.58h1.31c0.77,0,1.31,0.1,1.62,0.31
				c0.31,0.21,0.47,0.55,0.47,1.02c0,0.51-0.14,0.87-0.41,1.08c-0.27,0.21-0.79,0.31-1.56,0.31h-5.46c-0.45,0-0.8-0.12-1.02-0.35
				c-0.23-0.23-0.34-0.58-0.34-1.04c0-0.51,0.14-0.87,0.43-1.05c0.29-0.19,0.85-0.28,1.7-0.28h0.43l0.57-17.55h-0.31
				c-0.71,0-1.21-0.09-1.48-0.28c-0.27-0.19-0.41-0.52-0.41-1.01c0-0.42,0.11-0.75,0.33-0.97c0.22-0.23,0.54-0.34,0.96-0.34h3.2
				c0.6,0,1.06,0.1,1.37,0.31c0.32,0.21,0.56,0.54,0.73,1L111.43,321.63z"/>
			<path class="st2" d="M141.28,328.4c1,0,1.64,0.09,1.92,0.28s0.42,0.54,0.42,1.05c0,0.53-0.14,0.89-0.42,1.09s-0.92,0.3-1.92,0.3
				h-11.83h-0.92c-0.47,0-0.83-0.12-1.07-0.35c-0.25-0.23-0.37-0.58-0.37-1.04c0-0.51,0.14-0.87,0.43-1.05
				c0.29-0.19,0.93-0.28,1.93-0.28h4.41v-17.37h-4.41c-0.97,0-1.61-0.1-1.91-0.3c-0.3-0.2-0.45-0.56-0.45-1.09
				c0-0.47,0.12-0.83,0.37-1.05c0.25-0.23,0.62-0.34,1.11-0.34h0.88h11.83h0.92c0.47,0,0.82,0.12,1.06,0.35
				c0.24,0.23,0.36,0.58,0.36,1.04c0,0.53-0.15,0.89-0.44,1.09c-0.29,0.2-0.93,0.3-1.9,0.3h-4.41v17.37H141.28z"/>
			<path class="st2" d="M154.01,328.4H155h1.44c0.7,0,1.2,0.1,1.5,0.31c0.3,0.21,0.45,0.55,0.45,1.02c0,0.53-0.14,0.89-0.42,1.09
				c-0.28,0.2-0.89,0.3-1.84,0.3h-4.87h-0.92c-0.47,0-0.82-0.12-1.05-0.35c-0.23-0.23-0.35-0.58-0.35-1.04
				c0-0.51,0.13-0.87,0.4-1.05c0.27-0.19,0.78-0.28,1.55-0.28h0.37v-17.37h-0.49c-1.09,0-1.83-0.1-2.21-0.31
				c-0.38-0.21-0.57-0.57-0.57-1.08c0-0.47,0.17-0.82,0.5-1.03c0.33-0.21,0.87-0.32,1.61-0.32c0.52-0.03,0.91-0.04,1.17-0.04h1.83
				c0.6,0,1.02,0.07,1.26,0.2c0.24,0.14,0.52,0.48,0.85,1.03l9.83,16.78v-15.23h-0.76h-1.38c-0.7,0-1.21-0.11-1.53-0.34
				c-0.32-0.22-0.48-0.58-0.48-1.05c0-0.53,0.14-0.89,0.41-1.09c0.27-0.2,0.85-0.3,1.72-0.3h4.66h0.94c0.47,0,0.82,0.12,1.04,0.35
				c0.23,0.23,0.34,0.58,0.34,1.04c0,0.51-0.14,0.87-0.42,1.08s-0.79,0.31-1.53,0.31h-0.23v19.42c0,0.37-0.09,0.63-0.26,0.77
				c-0.18,0.14-0.58,0.21-1.22,0.21c-0.64,0-1.03-0.04-1.18-0.11c-0.15-0.07-0.4-0.4-0.75-0.99l-10.37-17.68V328.4z"/>
			<path class="st2" d="M189.47,327.79v-4.57h-4.84c-0.39,0-0.68-0.1-0.87-0.31c-0.19-0.21-0.28-0.52-0.28-0.95
				c0-0.49,0.08-0.82,0.25-1c0.17-0.18,0.49-0.27,0.97-0.27h8.42c0.34,0,0.59,0.11,0.75,0.32c0.16,0.21,0.24,0.53,0.24,0.95
				c0,0.48-0.11,0.8-0.32,0.98c-0.21,0.18-0.59,0.27-1.14,0.27h-0.25v5.34v0.46c0,0.35-0.04,0.59-0.12,0.72
				c-0.08,0.13-0.23,0.27-0.47,0.39c-0.74,0.44-1.82,0.81-3.24,1.12c-1.42,0.31-2.85,0.46-4.31,0.46c-3.48,0-6.3-1.1-8.44-3.3
				c-2.14-2.2-3.22-5.06-3.22-8.6c0-3.53,1.05-6.45,3.15-8.75c2.1-2.3,4.77-3.45,8.02-3.45c0.88,0,1.77,0.1,2.66,0.3
				c0.89,0.2,1.82,0.5,2.78,0.9c0.13-0.33,0.31-0.58,0.54-0.72c0.23-0.15,0.52-0.22,0.89-0.22c0.61,0,1.02,0.18,1.22,0.54
				c0.2,0.36,0.3,1.19,0.3,2.49v2.62c0,0.63-0.11,1.07-0.33,1.32c-0.22,0.25-0.6,0.38-1.15,0.38c-0.68,0-1.16-0.41-1.46-1.23
				c-0.1-0.24-0.19-0.43-0.25-0.56c-0.48-1.02-1.17-1.8-2.07-2.35c-0.9-0.55-1.92-0.83-3.08-0.83c-2.33,0-4.19,0.83-5.58,2.49
				c-1.39,1.66-2.09,3.91-2.09,6.73c0,2.92,0.77,5.23,2.3,6.95c1.53,1.72,3.57,2.58,6.12,2.58c0.74,0,1.5-0.1,2.29-0.29
				C187.68,328.52,188.54,328.21,189.47,327.79z"/>
			<path class="st3" d="M212.32,328.4h1.31c0.77,0,1.31,0.1,1.62,0.31c0.31,0.21,0.47,0.55,0.47,1.02c0,0.53-0.14,0.89-0.41,1.09
				c-0.27,0.2-0.87,0.3-1.79,0.3h-4.27h-0.88c-0.48,0-0.84-0.12-1.08-0.35c-0.24-0.23-0.36-0.58-0.36-1.04
				c0-0.5,0.14-0.85,0.42-1.04c0.28-0.19,0.81-0.29,1.59-0.29h0.35v-17.37h-0.31c-0.78,0-1.32-0.1-1.61-0.31
				c-0.29-0.21-0.44-0.57-0.44-1.08c0-0.47,0.12-0.83,0.36-1.05c0.24-0.23,0.61-0.34,1.12-0.34h0.84h4.07c1.04,0,1.7,0.1,1.98,0.3
				c0.28,0.2,0.42,0.56,0.42,1.09c0,0.51-0.18,0.87-0.53,1.08c-0.35,0.21-1.01,0.31-1.99,0.31h-0.88v6.71h9.34v-6.71h-1.33
				c-0.74,0-1.27-0.11-1.59-0.33c-0.32-0.22-0.48-0.57-0.48-1.06c0-0.53,0.15-0.89,0.44-1.09c0.29-0.2,1.01-0.3,2.15-0.3h3.88h0.88
				c0.47,0,0.82,0.12,1.06,0.35c0.24,0.23,0.36,0.58,0.36,1.04c0,0.5-0.14,0.86-0.41,1.07c-0.27,0.21-0.76,0.32-1.46,0.32h-0.47
				v17.37h0.31c0.78,0,1.31,0.1,1.6,0.3c0.29,0.2,0.43,0.54,0.43,1.03c0,0.53-0.14,0.89-0.41,1.09c-0.27,0.2-0.9,0.3-1.89,0.3h-4.04
				c-1.05,0-1.72-0.1-2.01-0.3s-0.43-0.56-0.43-1.09c0-0.5,0.17-0.85,0.51-1.04c0.34-0.19,0.98-0.29,1.93-0.29h0.95v-8.02h-9.34
				V328.4z"/>
			<path class="st2" d="M232.6,331.12h-0.92c-0.47,0-0.82-0.12-1.06-0.35c-0.24-0.23-0.36-0.58-0.36-1.04
				c0-0.51,0.14-0.87,0.42-1.05c0.28-0.19,0.92-0.28,1.92-0.28h1.25v-17.37h-1.25c-0.98,0-1.61-0.1-1.9-0.3
				c-0.29-0.2-0.44-0.56-0.44-1.09c0-0.47,0.12-0.83,0.36-1.05c0.24-0.23,0.61-0.34,1.1-0.34h0.88h16.1c0.44,0,0.78,0.13,1,0.39
				c0.23,0.26,0.34,0.65,0.34,1.15v4.55c0,0.67-0.1,1.13-0.29,1.39c-0.2,0.26-0.55,0.39-1.05,0.39c-0.53,0-0.9-0.14-1.1-0.42
				c-0.2-0.28-0.3-0.92-0.3-1.91v-2.76h-10.37v6.5h5.11v-1.02c0-0.69,0.09-1.18,0.28-1.45c0.19-0.27,0.52-0.4,0.98-0.4
				c0.46,0,0.77,0.14,0.95,0.43c0.18,0.29,0.26,0.91,0.26,1.86v3.59c0,0.96-0.09,1.58-0.27,1.85c-0.18,0.27-0.51,0.4-0.97,0.4
				c-0.47,0-0.79-0.15-0.97-0.46c-0.18-0.31-0.26-0.91-0.26-1.79v-0.67h-5.11v8.54h10.37v-3.12c0-0.99,0.1-1.63,0.3-1.91
				c0.2-0.28,0.57-0.42,1.1-0.42c0.49,0,0.84,0.13,1.04,0.4c0.2,0.26,0.3,0.76,0.3,1.49v4.86c0,0.46-0.12,0.82-0.35,1.06
				c-0.23,0.24-0.56,0.37-0.99,0.37H232.6z"/>
			<path class="st2" d="M261.88,311.03h-2.85c-0.79,0-1.35-0.11-1.67-0.32s-0.48-0.57-0.48-1.07c0-0.53,0.14-0.89,0.42-1.09
				c0.28-0.2,1.04-0.3,2.29-0.3h5.56c0.71,0,1.2,0.09,1.45,0.28c0.25,0.19,0.48,0.53,0.69,1.03l7.62,18.84h0.33
				c0.7,0,1.18,0.1,1.44,0.29c0.26,0.19,0.39,0.54,0.39,1.04c0,0.53-0.12,0.89-0.37,1.09c-0.25,0.2-0.71,0.3-1.38,0.3h-5.3
				c-0.99,0-1.62-0.1-1.9-0.3c-0.28-0.2-0.42-0.56-0.42-1.09c0-0.49,0.15-0.83,0.46-1.03s0.88-0.3,1.73-0.3h1.81l-1.89-4.59h-9.9
				l-1.68,4.59h1.89c0.86,0,1.44,0.1,1.75,0.3c0.31,0.2,0.47,0.54,0.47,1.03c0,0.53-0.14,0.89-0.42,1.09
				c-0.28,0.2-0.89,0.3-1.84,0.3h-5.13c-0.83,0-1.38-0.1-1.66-0.3c-0.27-0.2-0.41-0.56-0.41-1.09c0-0.5,0.14-0.85,0.41-1.04
				c0.27-0.19,0.8-0.29,1.58-0.29h0.37L261.88,311.03z M260.89,321.25h7.97l-4.19-10.22L260.89,321.25z"/>
			<path class="st2" d="M284.21,331.12h-3.08h-0.88c-0.48,0-0.84-0.12-1.08-0.35c-0.24-0.23-0.36-0.58-0.36-1.04
				c0-0.5,0.14-0.85,0.42-1.04c0.28-0.19,0.81-0.29,1.59-0.29h0.35v-17.37h-0.31c-0.78,0-1.32-0.1-1.61-0.31
				c-0.29-0.21-0.44-0.57-0.44-1.08c0-0.47,0.12-0.83,0.36-1.05c0.24-0.23,0.61-0.34,1.12-0.34h0.84h3.08h4.31
				c3.24,0,5.82,1.03,7.74,3.09c1.92,2.06,2.89,4.85,2.89,8.36c0,1.71-0.28,3.3-0.83,4.76c-0.55,1.47-1.36,2.75-2.41,3.86
				c-0.97,1-2.16,1.73-3.56,2.19c-1.4,0.46-3.19,0.68-5.39,0.68c-0.26,0-0.7-0.01-1.32-0.04
				C285.02,331.13,284.54,331.12,284.21,331.12z M284.21,328.4c0.42,0.04,0.83,0.07,1.24,0.09c0.41,0.02,0.81,0.03,1.2,0.03
				c3.2,0,5.54-0.71,7.03-2.12c1.49-1.41,2.23-3.64,2.23-6.69c0-3.06-0.75-5.29-2.24-6.68c-1.5-1.39-3.89-2.09-7.17-2.09
				c-0.61,0-1.08,0.01-1.39,0.02c-0.32,0.01-0.61,0.04-0.89,0.08V328.4z"/>
			<path class="st2" d="M308.17,328.4h1.31c0.77,0,1.31,0.1,1.62,0.31c0.31,0.21,0.47,0.55,0.47,1.02c0,0.53-0.14,0.89-0.41,1.09
				c-0.27,0.2-0.87,0.3-1.79,0.3h-4.27h-0.88c-0.48,0-0.84-0.12-1.08-0.35c-0.24-0.23-0.36-0.58-0.36-1.04
				c0-0.5,0.14-0.85,0.42-1.04c0.28-0.19,0.81-0.29,1.59-0.29h0.35v-17.37h-0.31c-0.78,0-1.32-0.1-1.61-0.31
				c-0.29-0.21-0.44-0.57-0.44-1.08c0-0.47,0.12-0.83,0.36-1.05c0.24-0.23,0.61-0.34,1.12-0.34h0.84h4.07c1.04,0,1.7,0.1,1.98,0.3
				c0.28,0.2,0.42,0.56,0.42,1.09c0,0.51-0.18,0.87-0.53,1.08c-0.35,0.21-1.01,0.31-1.99,0.31h-0.88v6.71h9.34v-6.71h-1.33
				c-0.74,0-1.27-0.11-1.59-0.33c-0.32-0.22-0.48-0.57-0.48-1.06c0-0.53,0.15-0.89,0.44-1.09c0.29-0.2,1.01-0.3,2.15-0.3h3.88h0.88
				c0.47,0,0.82,0.12,1.06,0.35c0.24,0.23,0.36,0.58,0.36,1.04c0,0.5-0.14,0.86-0.41,1.07c-0.27,0.21-0.76,0.32-1.46,0.32h-0.47
				v17.37h0.31c0.78,0,1.31,0.1,1.6,0.3c0.29,0.2,0.43,0.54,0.43,1.03c0,0.53-0.14,0.89-0.41,1.09c-0.27,0.2-0.9,0.3-1.89,0.3h-4.04
				c-1.05,0-1.72-0.1-2.01-0.3c-0.29-0.2-0.43-0.56-0.43-1.09c0-0.5,0.17-0.85,0.51-1.04c0.34-0.19,0.98-0.29,1.93-0.29h0.95v-8.02
				h-9.34V328.4z"/>
			<path class="st2" d="M328.36,311.03h-0.31c-0.78,0-1.32-0.1-1.61-0.31c-0.29-0.21-0.44-0.57-0.44-1.08
				c0-0.47,0.12-0.83,0.37-1.05c0.25-0.23,0.62-0.34,1.11-0.34h0.88h4c1.05,0,1.72,0.1,2.01,0.3c0.29,0.2,0.43,0.56,0.43,1.09
				c0,0.51-0.17,0.87-0.51,1.08c-0.34,0.21-0.98,0.31-1.93,0.31h-0.84v10.57c0,1.43,0.07,2.47,0.2,3.11
				c0.14,0.65,0.36,1.24,0.67,1.78c0.45,0.78,1.09,1.39,1.9,1.83c0.81,0.44,1.71,0.66,2.7,0.66c1.85,0,3.21-0.55,4.06-1.66
				c0.85-1.11,1.28-2.89,1.28-5.36v-10.93h-1.03c-1.01,0-1.68-0.1-2.03-0.3c-0.34-0.2-0.51-0.56-0.51-1.09
				c0-0.53,0.14-0.89,0.41-1.09c0.27-0.2,0.84-0.3,1.69-0.3h4.3h0.93c0.47,0,0.82,0.12,1.06,0.35c0.24,0.23,0.36,0.58,0.36,1.04
				c0,0.51-0.14,0.87-0.43,1.08s-0.8,0.31-1.55,0.31h-0.27v11.36c0,3.12-0.71,5.47-2.12,7.03s-3.53,2.34-6.37,2.34
				c-2.56,0-4.61-0.78-6.13-2.34c-1.53-1.56-2.29-3.67-2.29-6.32V311.03z"/>
			<path class="st2" d="M355.45,328.4h0.99h1.44c0.7,0,1.2,0.1,1.5,0.31c0.3,0.21,0.45,0.55,0.45,1.02c0,0.53-0.14,0.89-0.42,1.09
				c-0.28,0.2-0.89,0.3-1.84,0.3h-4.87h-0.92c-0.47,0-0.82-0.12-1.05-0.35c-0.23-0.23-0.35-0.58-0.35-1.04
				c0-0.51,0.13-0.87,0.4-1.05c0.27-0.19,0.78-0.28,1.55-0.28h0.37v-17.37h-0.49c-1.09,0-1.83-0.1-2.21-0.31
				c-0.38-0.21-0.58-0.57-0.58-1.08c0-0.47,0.17-0.82,0.5-1.03c0.33-0.21,0.87-0.32,1.61-0.32c0.52-0.03,0.91-0.04,1.17-0.04h1.83
				c0.6,0,1.02,0.07,1.26,0.2c0.24,0.14,0.52,0.48,0.85,1.03l9.83,16.78v-15.23h-0.76h-1.38c-0.7,0-1.21-0.11-1.53-0.34
				c-0.32-0.22-0.48-0.58-0.48-1.05c0-0.53,0.14-0.89,0.41-1.09c0.27-0.2,0.84-0.3,1.72-0.3h4.66h0.94c0.47,0,0.82,0.12,1.04,0.35
				c0.23,0.23,0.34,0.58,0.34,1.04c0,0.51-0.14,0.87-0.42,1.08c-0.28,0.21-0.79,0.31-1.53,0.31h-0.23v19.42
				c0,0.37-0.09,0.63-0.26,0.77c-0.18,0.14-0.58,0.21-1.22,0.21c-0.64,0-1.03-0.04-1.18-0.11c-0.15-0.07-0.4-0.4-0.75-0.99
				l-10.37-17.68V328.4z"/>
			<path class="st2" d="M377.42,316.04c-0.03,0.96-0.14,1.58-0.34,1.84c-0.2,0.26-0.59,0.39-1.18,0.39c-0.45,0-0.8-0.12-1.02-0.36
				c-0.23-0.24-0.34-0.59-0.34-1.05c0.03-0.4,0.04-0.7,0.04-0.91l0.2-6.36c0.03-0.48,0.16-0.82,0.39-1.03
				c0.23-0.21,0.6-0.32,1.09-0.32h16.94c0.49,0,0.86,0.11,1.09,0.32c0.23,0.21,0.36,0.56,0.37,1.03l0.21,6.36
				c0,0.23,0.01,0.45,0.02,0.66c0.01,0.21,0.02,0.3,0.02,0.29c0,0.46-0.12,0.81-0.37,1.03c-0.25,0.22-0.62,0.34-1.11,0.34
				c-0.52,0-0.88-0.13-1.07-0.39c-0.2-0.26-0.31-0.88-0.33-1.84l-0.2-5.01h-5.6v17.37h3h0.76c0.55,0,0.94,0.11,1.19,0.32
				c0.25,0.21,0.37,0.55,0.37,1.01c0,0.45-0.12,0.79-0.35,1.03c-0.23,0.24-0.57,0.36-1.01,0.36h-10.94c-0.44,0-0.78-0.12-1.01-0.36
				c-0.23-0.24-0.35-0.58-0.35-1.03c0-0.48,0.13-0.82,0.38-1.02c0.25-0.2,0.69-0.31,1.3-0.31h0.64h3v-17.37h-5.6L377.42,316.04z"/>
		</g>
		<g>
			<path class="st4" d="M195.12,156.95l-4.55-12.21c10.07-2.89,19.6-7.34,28.59-13.34c8.99-6,16.06-12.64,21.2-19.93
				c5.14-7.28,7.72-14.46,7.72-21.53c0-5.25-1.71-9.37-5.12-12.37c-3.41-3-7.99-4.5-13.73-4.5c-6.82,0-14.3,1.77-22.42,5.3
				s-16.17,8.46-24.13,14.78c-7.96,6.32-15.57,13.93-22.83,22.82c-7.91,9.75-14.52,19.93-19.82,30.53
				c-5.31,10.61-9.32,21.4-12.02,32.38c-2.71,10.98-4.06,22.36-4.06,34.15c0,20.03,4.66,35.91,13.97,47.65
				c9.31,11.73,22.04,17.6,38.18,17.6c10.4,0,20.5-2.3,30.3-6.91c9.8-4.6,21.04-12.32,33.71-23.14l2.6-2.09l1.95,3.54
				c-12.89,12.64-25.83,22.12-38.83,28.44c-13,6.32-26.1,9.48-39.32,9.48c-11.92,0-22.5-2.81-31.76-8.44
				c-9.26-5.62-16.41-13.5-21.45-23.62s-7.55-21.99-7.55-35.59c0-9.85,1.46-20.14,4.39-30.85c2.92-10.71,7.28-21.56,13.08-32.54
				c5.79-10.98,12.65-21.61,20.55-31.9c8.34-10.93,17.6-20.7,27.78-29.33c10.18-8.62,20.39-15.29,30.63-20.01
				c10.24-4.71,19.42-7.07,27.54-7.07c7.69,0,13.84,2.17,18.44,6.51c4.6,4.34,6.91,10.2,6.91,17.6c0,8.25-2.76,16.85-8.29,25.79
				c-5.52,8.95-12.89,16.93-22.1,23.94C215.48,149.1,205.62,154.06,195.12,156.95z"/>
		</g>
	</g>
</g>
</svg>
